<svg id="Layer_1" data-name="Layer 1" xmlns="http://www.w3.org/2000/svg" xmlns:xlink="http://www.w3.org/1999/xlink" viewBox="0 0 211.87 146.68"><defs><style>.cls-1,.cls-8{fill:#faec22;}.cls-2{fill:url(#linear-gradient);}.cls-3{fill:url(#linear-gradient-2);}.cls-4{fill:url(#linear-gradient-3);}.cls-5{fill:#f2f9fd;}.cls-6{fill:none;stroke-miterlimit:10;stroke:url(#linear-gradient-4);}.cls-7{font-size:23.35px;fill:#1b1464;font-family:Pacifico-Regular, Pacifico;}.cls-8{font-size:23.17px;font-family:RobotoSlab-Bold, Roboto Slab;font-weight:700;}.cls-9{letter-spacing:-0.01em;}.cls-10{letter-spacing:-0.01em;}</style><linearGradient id="linear-gradient" x1="348.75" y1="45.97" x2="385.83" y2="98.74" gradientTransform="translate(408.52 173.64) rotate(180)" gradientUnits="userSpaceOnUse"><stop offset="0" stop-color="#efffff"/><stop offset="0.09" stop-color="#effef6"/><stop offset="0.25" stop-color="#f1fcdd"/><stop offset="0.45" stop-color="#f3f9b4"/><stop offset="0.68" stop-color="#f6f47b"/><stop offset="0.94" stop-color="#f9ed33"/><stop offset="1" stop-color="#faec22"/></linearGradient><linearGradient id="linear-gradient-2" x1="76.56" y1="141.84" x2="76.56" y2="65.86" gradientTransform="matrix(1, 0, 0, 1, 0, 0)" xlink:href="#linear-gradient"/><linearGradient id="linear-gradient-3" x1="59.21" y1="91.03" x2="90.35" y2="91.03" gradientTransform="matrix(1, 0, 0, 1, 0, 0)" xlink:href="#linear-gradient"/><linearGradient id="linear-gradient-4" x1="133.4" y1="92.61" x2="0" y2="92.61" gradientUnits="userSpaceOnUse"><stop offset="0" stop-color="#fff"/><stop offset="0.09" stop-color="#fffef6"/><stop offset="0.25" stop-color="#fefcdd"/><stop offset="0.45" stop-color="#fdf9b4"/><stop offset="0.68" stop-color="#fcf47b"/><stop offset="0.94" stop-color="#faed33"/><stop offset="1" stop-color="#faec22"/></linearGradient></defs><title>Artboard 1</title><path class="cls-1" d="M118.81,77.09C89.39,63,35.86,66,14.51,77.09a52.15,52.15,0,1,1,104.3,0Z"/><path class="cls-2" d="M54.77,145.29c1.49-13-2.45-27.85-6-39.35-1-3.18-1.24-6.92-2.11-9.83-1-3.17-2-6.31-3-9.62-1.75-6-4.86-9.49-7.17-14.55-.55-1.21-1-3.05-1.52-4.3-6.3-.72-14.28.08-20.46.4.73,4,.64,10.37,2.48,13.36,2.08,3.38,9.26,5.35,10.87,9.48a35.57,35.57,0,0,1,2.22,6.3c.51,2.44.51,4.51,1.54,6.68a65.46,65.46,0,0,0,5.44,8.7c.17-1.4.76-6.78,1.67-6.68,1.12.13,1,5.54,1.52,6.75.72,1.83,1.79,2,2.61,3.6.73,1.46,1.38,4.32,2,6.06,0-.54,0-1.16.08-1.72,1.74-.2,1.67,3.58,2.38,5.75s1.63,4,2.33,6.32c1.45,4.87,2.59,9.21,4.89,12.15"/><path class="cls-3" d="M118.6,67.54A57.6,57.6,0,0,1,109.55,81c-3.18,3.55-6.7,5.32-10.07,8s-5.91,6.86-9.14,10c-3.53,3.38-7.4,5.55-10.86,9-8.61,8.53-14.54,24.56-22.68,33.85-.4-4.1.53-8-.24-12.1-.69-3.72-1.94-6.64-2.83-10.08a81.31,81.31,0,0,0-2.85-9.85,40.42,40.42,0,0,1-3-9.23,104.25,104.25,0,0,0-6.05-18.44c-1.14-2.6-7.54-12-7.35-15.56h0c7.41,1.46,43.37-2.31,51.64.11,5.75,1.68,11.47-.11,17.29-.11,2.8,0,5.72.33,8.39.5,4.17.27,4.17.27,6.77.46"/><path class="cls-4" d="M90.35,66.1c-.23,2.93-4.56,8.49-6.11,11.29-2.13,3.85-4.24,7.6-6.48,11-4.83,7.41-8.6,16.93-12.56,25.72C65,103.37,69,94.75,71,85.5c-2,.7-3.31,5.22-4.86,7.63a24.8,24.8,0,0,1,.73-5.46c-4.26,6.87-4.92,19.55-7.64,28.29a275.51,275.51,0,0,1,5.66-36.18,16.81,16.81,0,0,0-1.65,1.8A99.72,99.72,0,0,1,66.38,66.1Z"/><path class="cls-5" d="M108.87,80.19c-1.2-1.32.68-9.69,1.69-12.07-2.35,2.41-3.19,7.25-4.09,11.55-.06-.71-.28-1.56-.36-2.33-.85.77-1.59,2.68-2.39,4.16,0-.68-.09-1.52-.07-2.21-.9.54-1.6,2.38-2.7,2.79-.53-2-1.14-2.86-1.25-5.23-.85.55-1.23,2.59-1.9,3.78-.22-3.54.24-9.47,1.4-12-2.21,5-3,12-4.6,17.39-.06-.74-.18-1.22-.28-1.84-2.61.64-4.79,12-6.63,15.41C86,92.8,88,76.62,89.88,70.67c-3.54,9.67-4.1,20.48-6,31,0-.19-.26-2.59-.28-3.8-.44,1.18-1.22,2-1.69,3-.84.26-1.87,2.27-2.78,1.7s-1.62-3.86-1.71-5.34c-2.11,2.63-3,9.82-4.35,13.89a74.13,74.13,0,0,1-.85-10.49c-1.66,3.27-2.42,9.9-3.41,14.05-1.26,5.3-2.58,11.26-4.39,15.9a35.44,35.44,0,0,1-.61-7.11c-.14.76-.55,2.16-.7,3.22.09-1.5,0-3,0-4.55a135.12,135.12,0,0,1-4.26,16.29c-2.23-2.78-2.55-11.45-3.9-16-1.7-5.73-2.68-12.29-4.51-17.87a280.88,280.88,0,0,0-11-29.22c1.15,6,4.55,12.06,6.21,17.94s2.58,12.17,4.07,18.1c1.37,5.47,3,10.57,4,16.4,1.08,6.77.37,12.14.59,18.87,1.4.18,3-4.72,4.22-6.61s2.52-2.91,3.83-4.6c2.85-3.69,5.34-10.08,8-14.58,6.5-11.15,15.24-14.44,22.23-23.59,5.22-6.83,10-10.18,15.86-14,4.17-2.78,5.06-2.94,10.38-6.16-6.95-5.28-5.87.35-9.44,2.61"/><path class="cls-6" d="M14.51,77.09s-74.15,65.6,118.74,5.64"/><path class="cls-1" d="M36.79,17.65a3.41,3.41,0,0,0-3.25-2.18l-.45-1.16.4-.15-.19-.49L32.5,14l-.39-1L32,13a.58.58,0,0,0-.52-.35L26.6.11A.16.16,0,0,0,26.39,0l-.1,0a.16.16,0,0,0-.09.21l4.86,12.59a.58.58,0,0,0-.15.61l-.13.05.39,1-.81.31.19.49.4-.15.45,1.16a3.4,3.4,0,0,0,2.3,6l.24.63-.78.3.3.77.66-.26,8.11,22.39,3.32-1.28-9-22,.66-.26-.3-.77-.78.3-.24-.63A3.41,3.41,0,0,0,36.79,17.65Z"/><path class="cls-1" d="M59.67,43.92,48.1,8.9s-4.89,1.57-3.67,9l2.3,7-.46.15-1.74-5.27L42,19.62,40.19,21l4.52,13.69-1.29.43-1.3-3.93L40,31.93l-.27-.83L36.84,32,39,38.6l-1.5.49-2.92-8.83-2.38.78L32,30.33l-2.58.85.26.77-2.74.9,2.41,7.28-1.39.46-1.1-2.43-1.6.53-.58-1.76-2.12.7-.31-.93-1.7.56L21,38.73l-2.89,1,1.6,4L18,44.35l1.33,2.46L17,48.69l5.5,8.5Z"/><polygon class="cls-1" points="56.34 35.99 54.56 21.45 56.44 21.22 56.22 19.4 57.33 19.26 57.53 20.92 63.89 20.15 64.24 23.02 68.16 22.54 68.45 24.92 71.11 24.6 70.8 22.11 73.68 21.76 73.96 24.03 74.95 23.91 74.85 23.08 76.01 22.93 75.86 21.66 81.02 22.2 81.17 23.47 82.17 23.35 82.38 25.06 83.65 24.91 84.05 27.3 85.19 27.16 85 25.56 86.23 25.52 86.13 24.69 87.62 24.51 87.71 25.23 88.48 25.14 89.39 34.98 56.34 35.99"/><text class="cls-7" transform="translate(32.01 60.6)">Placebo</text><path class="cls-1" d="M150.9,76.24a1.89,1.89,0,1,0-1.07,2.45,1.89,1.89,0,0,0,1.07-2.45Zm0,0"/><path class="cls-1" d="M144.52,86.47a11.43,11.43,0,0,0,.92-1.7,14.4,14.4,0,0,0,2.89-.8,13.48,13.48,0,0,0,8.43-9.88.29.29,0,0,0-.11-.28,13.48,13.48,0,0,0-12.9-1.48,14.49,14.49,0,0,0-2.58,1.33,11.44,11.44,0,0,0-1.83-.61.28.28,0,0,0-.25.05l-5.73,4.54a.28.28,0,0,0-.1.27.29.29,0,0,0,.19.22,5.46,5.46,0,0,1,2.39,1.63l-.4.16a.29.29,0,0,0-.16.37l1.42,3.61a.29.29,0,0,0,.37.16l.32-.13a5.45,5.45,0,0,1-.64,2.82.28.28,0,0,0,0,.24l0,.05a.29.29,0,0,0,.26.13l7.29-.59a.29.29,0,0,0,.22-.13Zm4.33-7.1a2.46,2.46,0,1,1,1.2-.15,2.46,2.46,0,0,1-1.2.15Zm-8.68,4.26a.29.29,0,0,1-.25-.18.3.3,0,0,1,0-.12.29.29,0,0,1,.3-.27A19.9,19.9,0,0,0,149,81.5a.29.29,0,0,1,.38.13.28.28,0,0,1-.13.38,20.15,20.15,0,0,1-9.11,1.63Zm0,0"/><text class="cls-8" transform="translate(118.36 60.6) scale(1.09 1)"><tspan class="cls-9">F</tspan><tspan x="14.06" y="0">utu</tspan><tspan class="cls-10" x="51.63" y="0">r</tspan><tspan x="61.16" y="0">es</tspan></text></svg>